<svg width="35" height="35" viewBox="0 0 35 35" fill="none" xmlns="http://www.w3.org/2000/svg">
<rect width="35" height="35" fill="white"/>
<g clip-path="url(#clip0_108_194)">
<path d="M8.21 5.00098H26.7915C28.5568 5.00098 30 6.44464 30 8.20998V26.7915C30 28.5563 28.5568 29.999 26.7915 29.999H8.21C6.44467 29.999 5 28.5562 5 26.7915V8.20998C5 6.44464 6.44467 5.00098 8.21 5.00098ZM23.2122 7.77739C22.5923 7.77739 22.0868 8.28498 22.0868 8.90448V11.5973C22.0868 12.2171 22.5923 12.7235 23.2122 12.7235H26.0374C26.6563 12.7235 27.1629 12.2171 27.1629 11.5973V8.90448C27.1629 8.28498 26.6563 7.77739 26.0374 7.77739H23.2122ZM27.1737 15.5723H24.974C25.1826 16.2536 25.2957 16.972 25.2957 17.7189C25.2957 21.8757 21.8152 25.2472 17.5235 25.2472C13.2329 25.2472 9.75233 21.8757 9.75233 17.7189C9.75233 16.972 9.8665 16.2536 10.0741 15.5723H7.77917V26.1333C7.77917 26.6802 8.22575 27.1251 8.77217 27.1251H26.1811C26.728 27.1251 27.1737 26.6802 27.1737 26.1333V15.5723ZM17.5236 12.5815C14.7519 12.5815 12.5036 14.7588 12.5036 17.4471C12.5036 20.1327 14.7519 22.3117 17.5236 22.3117C20.2968 22.3117 22.5452 20.1327 22.5452 17.4471C22.5452 14.7587 20.2968 12.5815 17.5236 12.5815Z" fill="black"/>
</g>
<defs>
<clipPath id="clip0_108_194">
<rect width="25" height="25" fill="white" transform="translate(5 5)"/>
</clipPath>
</defs>
</svg>
