<svg width="35" height="35" viewBox="0 0 35 35" fill="none" xmlns="http://www.w3.org/2000/svg">
<rect width="35" height="35" fill="white"/>
<g clip-path="url(#clip0_108_192)">
<path d="M29.8495 9.58396C29.713 9.45163 29.5174 9.40799 29.3393 9.46991L28.4963 9.76081C28.9928 9.15989 29.3593 8.53229 29.5522 7.93733C29.6082 7.76389 29.5573 7.5718 29.4228 7.44836C29.2876 7.32409 29.0912 7.2889 28.9207 7.36015C27.7384 7.85591 26.6922 8.28761 25.8602 8.54587C25.8293 8.55564 25.7974 8.55139 25.7656 8.53356C25.1024 8.16207 23.4421 7.30884 22.2628 7.32243C19.2803 7.37711 16.8534 9.92579 16.8534 13.0041V13.1724C12.4617 12.3222 10.0348 11.0589 7.40682 8.30202L6.99633 7.87116L6.72321 8.39995C5.29667 11.1594 6.30808 13.6326 7.9751 15.2983C7.23637 15.1851 6.6999 14.9472 6.24827 14.5532C6.07484 14.4031 5.82884 14.3845 5.63547 14.5075C5.44508 14.6287 5.35815 14.8556 5.41962 15.0719C5.98067 17.057 7.48315 18.6871 9.06919 19.6612C8.3029 19.6603 7.67232 19.5751 7.03831 19.1676C6.85384 19.0488 6.6138 19.0611 6.44164 19.1972C6.27075 19.3329 6.20502 19.5619 6.27793 19.7676C7.05102 21.9388 8.49666 23.0809 10.8922 23.3654C9.66073 24.0855 8.06287 24.6546 5.56804 24.7067C5.32463 24.7118 5.10917 24.87 5.03118 25.0998C4.95319 25.3289 5.02443 25.5748 5.21228 25.7258C6.72834 26.9479 10.1289 27.6778 14.309 27.6778C21.7917 27.6778 27.8793 21.0194 27.8793 12.8353V12.6915C28.8474 12.2289 29.5861 11.3159 29.9767 10.0882C30.0335 9.90922 29.9848 9.71586 29.8495 9.58396Z" fill="black"/>
</g>
<defs>
<clipPath id="clip0_108_192">
<rect width="25" height="25" fill="white" transform="translate(5 5)"/>
</clipPath>
</defs>
</svg>
