<svg width="35" height="35" viewBox="0 0 35 35" fill="none" xmlns="http://www.w3.org/2000/svg">
<rect width="35" height="35" fill="white"/>
<g clip-path="url(#clip0_108_195)">
<path d="M8.00478 5.02148C6.34429 5.02148 5.00027 6.36793 5 8.02465C5 9.68299 6.34403 11.0292 8.00505 11.0292C9.66151 11.0292 11.0074 9.68299 11.0074 8.02465C11.0074 6.36766 9.66124 5.02148 8.00478 5.02148Z" fill="black"/>
<path d="M10.5945 13.3081H5.41317V29.9785H10.5945V13.3081Z" fill="black"/>
<path d="M23.7849 12.8936C21.2645 12.8936 19.5745 14.2755 18.8827 15.5859H18.8134V13.3081H13.844H13.8438V29.9782H19.0205V21.7314C19.0205 19.5573 19.4345 17.4514 22.1301 17.4514C24.787 17.4514 24.8224 19.9379 24.8224 21.8708V29.978H30V20.8344C30 16.3462 29.0315 12.8936 23.7849 12.8936Z" fill="black"/>
</g>
<defs>
<clipPath id="clip0_108_195">
<rect width="25" height="25" fill="white" transform="translate(5 5)"/>
</clipPath>
</defs>
</svg>
