<svg width="35" height="35" viewBox="0 0 35 35" fill="none" xmlns="http://www.w3.org/2000/svg">
<rect width="35" height="35" fill="white"/>
<path d="M13.9368 9.82447C13.9368 9.66863 13.9585 9.33206 14.0018 8.81693C14.0483 8.30072 14.2431 7.7607 14.5927 7.19363C14.939 6.62872 15.5006 6.12116 16.282 5.67205C17.0601 5.2251 18.1845 5 19.652 5H23.786V9.50522H20.7591C20.4593 9.50522 20.1801 9.61777 19.9279 9.83962C19.6779 10.0615 19.5492 10.2725 19.5492 10.4684V13.2713H23.7849C23.7405 13.82 23.6918 14.3535 23.6356 14.8686L23.4678 16.23C23.4007 16.69 23.3325 17.1164 23.2654 17.5092H19.5189V30H13.9368V17.5081H11.214V13.2713H13.9368V9.82447Z" fill="black"/>
</svg>
